<svg xmlns="http://www.w3.org/2000/svg" xmlns:xlink="http://www.w3.org/1999/xlink" width="2000" zoomAndPan="magnify" viewBox="0 0 1500 1499.999933" height="2000" preserveAspectRatio="xMidYMid meet" version="1.0"><defs><g/></defs><path fill="#ff5a19" d="M 515.828125 817.414062 L 401.359375 819.46875 C 398.996094 819.515625 397.082031 817.613281 397.15625 815.304688 L 401.050781 684.835938 C 401.117188 682.675781 402.898438 680.941406 405.105469 680.902344 L 506.898438 679.074219 C 509.101562 679.035156 510.949219 680.699219 511.089844 682.855469 L 519.863281 813.09375 C 520.03125 815.40625 518.179688 817.367188 515.828125 817.414062 Z M 515.828125 817.414062 " fill-opacity="1" fill-rule="evenodd"/><path fill="#3a003d" d="M 515.921875 816.332031 L 403.695312 816.332031 C 401.375 816.332031 399.535156 814.4375 399.648438 812.175781 L 405.859375 684.386719 C 405.964844 682.265625 407.746094 680.605469 409.90625 680.605469 L 509.699219 680.605469 C 511.855469 680.605469 513.640625 682.265625 513.742188 684.386719 L 519.957031 812.175781 C 520.066406 814.4375 518.226562 816.332031 515.921875 816.332031 Z M 515.921875 816.332031 " fill-opacity="1" fill-rule="evenodd"/><path fill="#ff5a19" d="M 459.800781 746.535156 C 440.988281 746.535156 425.4375 732.558594 423.410156 714.640625 C 423.167969 712.519531 424.839844 710.660156 427.015625 710.660156 C 428.875 710.660156 430.417969 712.042969 430.621094 713.855469 C 432.257812 728.214844 444.726562 739.421875 459.800781 739.421875 C 474.878906 739.421875 487.347656 728.214844 488.972656 713.855469 C 489.179688 712.042969 490.71875 710.660156 492.578125 710.660156 C 494.753906 710.660156 496.425781 712.519531 496.183594 714.640625 C 494.164062 732.546875 478.625 746.535156 459.800781 746.535156 Z M 459.800781 746.535156 " fill-opacity="1" fill-rule="nonzero"/><g fill="#000000" fill-opacity="1"><g transform="translate(542.120387, 784.499912)"><g><path d="M 36.84375 -68.59375 C 45.601562 -68.59375 52.460938 -66.503906 57.421875 -62.328125 C 62.390625 -58.148438 64.875 -52.398438 64.875 -45.078125 C 64.875 -37.765625 62.390625 -32.03125 57.421875 -27.875 C 52.460938 -23.726562 45.601562 -21.65625 36.84375 -21.65625 L 18.421875 -21.65625 L 18.421875 0 L 11.171875 0 L 11.171875 -68.59375 Z M 36.65625 -28.03125 C 43.445312 -28.03125 48.640625 -29.515625 52.234375 -32.484375 C 55.828125 -35.460938 57.625 -39.660156 57.625 -45.078125 C 57.625 -50.628906 55.828125 -54.890625 52.234375 -57.859375 C 48.640625 -60.835938 43.445312 -62.328125 36.65625 -62.328125 L 18.421875 -62.328125 L 18.421875 -28.03125 Z M 36.65625 -28.03125 "/></g></g></g><g fill="#000000" fill-opacity="1"><g transform="translate(605.716756, 784.499912)"><g><path d="M 16.359375 -41.453125 C 17.992188 -44.910156 20.425781 -47.519531 23.65625 -49.28125 C 26.894531 -51.050781 30.898438 -51.9375 35.671875 -51.9375 L 35.671875 -45.171875 L 34 -45.28125 C 28.582031 -45.28125 24.335938 -43.613281 21.265625 -40.28125 C 18.191406 -36.945312 16.65625 -32.273438 16.65625 -26.265625 L 16.65625 0 L 9.703125 0 L 9.703125 -51.546875 L 16.359375 -51.546875 Z M 16.359375 -41.453125 "/></g></g></g><g fill="#000000" fill-opacity="1"><g transform="translate(638.249605, 784.499912)"><g><path d="M 9.703125 -51.546875 L 16.65625 -51.546875 L 16.65625 0 L 9.703125 0 Z M 13.21875 -62.8125 C 11.78125 -62.8125 10.570312 -63.300781 9.59375 -64.28125 C 8.613281 -65.269531 8.125 -66.445312 8.125 -67.8125 C 8.125 -69.125 8.613281 -70.269531 9.59375 -71.25 C 10.570312 -72.226562 11.78125 -72.71875 13.21875 -72.71875 C 14.65625 -72.71875 15.863281 -72.242188 16.84375 -71.296875 C 17.832031 -70.347656 18.328125 -69.21875 18.328125 -67.90625 C 18.328125 -66.476562 17.832031 -65.269531 16.84375 -64.28125 C 15.863281 -63.300781 14.65625 -62.8125 13.21875 -62.8125 Z M 13.21875 -62.8125 "/></g></g></g><g fill="#000000" fill-opacity="1"><g transform="translate(657.847484, 784.499912)"><g><path d="M 73.984375 -51.9375 C 80.453125 -51.9375 85.53125 -50.070312 89.21875 -46.34375 C 92.914062 -42.625 94.765625 -37.140625 94.765625 -29.890625 L 94.765625 0 L 87.8125 0 L 87.8125 -29.203125 C 87.8125 -34.554688 86.519531 -38.640625 83.9375 -41.453125 C 81.351562 -44.265625 77.710938 -45.671875 73.015625 -45.671875 C 67.648438 -45.671875 63.429688 -44.019531 60.359375 -40.71875 C 57.296875 -37.414062 55.765625 -32.859375 55.765625 -27.046875 L 55.765625 0 L 48.796875 0 L 48.796875 -29.203125 C 48.796875 -34.554688 47.503906 -38.640625 44.921875 -41.453125 C 42.347656 -44.265625 38.675781 -45.671875 33.90625 -45.671875 C 28.613281 -45.671875 24.414062 -44.019531 21.3125 -40.71875 C 18.207031 -37.414062 16.65625 -32.859375 16.65625 -27.046875 L 16.65625 0 L 9.703125 0 L 9.703125 -51.546875 L 16.359375 -51.546875 L 16.359375 -42.140625 C 18.191406 -45.273438 20.738281 -47.691406 24 -49.390625 C 27.269531 -51.085938 31.03125 -51.9375 35.28125 -51.9375 C 39.59375 -51.9375 43.332031 -51.019531 46.5 -49.1875 C 49.664062 -47.363281 52.035156 -44.65625 53.609375 -41.0625 C 55.503906 -44.457031 58.226562 -47.117188 61.78125 -49.046875 C 65.34375 -50.972656 69.410156 -51.9375 73.984375 -51.9375 Z M 73.984375 -51.9375 "/></g></g></g><g fill="#000000" fill-opacity="1"><g transform="translate(755.05516, 784.499912)"><g><path d="M 54.59375 -23.625 L 11.46875 -23.625 C 11.851562 -18.257812 13.90625 -13.925781 17.625 -10.625 C 21.351562 -7.332031 26.0625 -5.6875 31.75 -5.6875 C 34.945312 -5.6875 37.882812 -6.253906 40.5625 -7.390625 C 43.25 -8.535156 45.570312 -10.222656 47.53125 -12.453125 L 51.453125 -7.9375 C 49.160156 -5.195312 46.300781 -3.109375 42.875 -1.671875 C 39.445312 -0.234375 35.675781 0.484375 31.5625 0.484375 C 26.269531 0.484375 21.582031 -0.640625 17.5 -2.890625 C 13.414062 -5.140625 10.226562 -8.257812 7.9375 -12.25 C 5.65625 -16.238281 4.515625 -20.75 4.515625 -25.78125 C 4.515625 -30.800781 5.609375 -35.304688 7.796875 -39.296875 C 9.984375 -43.285156 12.988281 -46.390625 16.8125 -48.609375 C 20.632812 -50.828125 24.925781 -51.9375 29.6875 -51.9375 C 34.457031 -51.9375 38.738281 -50.828125 42.53125 -48.609375 C 46.320312 -46.390625 49.296875 -43.300781 51.453125 -39.34375 C 53.609375 -35.394531 54.6875 -30.875 54.6875 -25.78125 Z M 29.6875 -45.96875 C 24.726562 -45.96875 20.566406 -44.378906 17.203125 -41.203125 C 13.835938 -38.035156 11.925781 -33.90625 11.46875 -28.8125 L 48.015625 -28.8125 C 47.554688 -33.90625 45.644531 -38.035156 42.28125 -41.203125 C 38.914062 -44.378906 34.71875 -45.96875 29.6875 -45.96875 Z M 29.6875 -45.96875 "/></g></g></g><g fill="#ff5a19" fill-opacity="1"><g transform="translate(820.615331, 784.499912)"><g><path d="M 9.21875 -68.59375 L 39.203125 -68.59375 C 46.515625 -68.59375 53.015625 -67.171875 58.703125 -64.328125 C 64.390625 -61.492188 68.800781 -57.476562 71.9375 -52.28125 C 75.070312 -47.082031 76.640625 -41.085938 76.640625 -34.296875 C 76.640625 -27.503906 75.070312 -21.507812 71.9375 -16.3125 C 68.800781 -11.125 64.390625 -7.109375 58.703125 -4.265625 C 53.015625 -1.421875 46.515625 0 39.203125 0 L 9.21875 0 Z M 38.609375 -10.78125 C 43.640625 -10.78125 48.066406 -11.742188 51.890625 -13.671875 C 55.710938 -15.597656 58.648438 -18.34375 60.703125 -21.90625 C 62.765625 -25.46875 63.796875 -29.597656 63.796875 -34.296875 C 63.796875 -39.003906 62.765625 -43.132812 60.703125 -46.6875 C 58.648438 -50.25 55.710938 -52.992188 51.890625 -54.921875 C 48.066406 -56.847656 43.640625 -57.8125 38.609375 -57.8125 L 21.953125 -57.8125 L 21.953125 -10.78125 Z M 38.609375 -10.78125 "/></g></g></g><g fill="#ff5a19" fill-opacity="1"><g transform="translate(894.794851, 784.499912)"><g><path d="M 57.234375 -25.875 C 57.234375 -25.019531 57.164062 -23.8125 57.03125 -22.25 L 15.96875 -22.25 C 16.6875 -18.394531 18.566406 -15.335938 21.609375 -13.078125 C 24.648438 -10.828125 28.421875 -9.703125 32.921875 -9.703125 C 38.671875 -9.703125 43.410156 -11.597656 47.140625 -15.390625 L 53.703125 -7.84375 C 51.347656 -5.03125 48.375 -2.90625 44.78125 -1.46875 C 41.1875 -0.03125 37.140625 0.6875 32.640625 0.6875 C 26.890625 0.6875 21.820312 -0.453125 17.4375 -2.734375 C 13.0625 -5.023438 9.679688 -8.210938 7.296875 -12.296875 C 4.910156 -16.378906 3.71875 -21.003906 3.71875 -26.171875 C 3.71875 -31.265625 4.878906 -35.851562 7.203125 -39.9375 C 9.523438 -44.019531 12.742188 -47.203125 16.859375 -49.484375 C 20.972656 -51.773438 25.609375 -52.921875 30.765625 -52.921875 C 35.867188 -52.921875 40.425781 -51.789062 44.4375 -49.53125 C 48.457031 -47.28125 51.59375 -44.113281 53.84375 -40.03125 C 56.101562 -35.945312 57.234375 -31.226562 57.234375 -25.875 Z M 30.765625 -43.125 C 26.847656 -43.125 23.535156 -41.960938 20.828125 -39.640625 C 18.117188 -37.316406 16.46875 -34.226562 15.875 -30.375 L 45.5625 -30.375 C 45.039062 -34.164062 43.441406 -37.238281 40.765625 -39.59375 C 38.085938 -41.945312 34.753906 -43.125 30.765625 -43.125 Z M 30.765625 -43.125 "/></g></g></g><g fill="#ff5a19" fill-opacity="1"><g transform="translate(948.983972, 784.499912)"><g><path d="M 28.03125 -52.921875 C 35.738281 -52.921875 41.632812 -51.070312 45.71875 -47.375 C 49.800781 -43.6875 51.84375 -38.117188 51.84375 -30.671875 L 51.84375 0 L 40.28125 0 L 40.28125 -6.375 C 38.78125 -4.082031 36.640625 -2.332031 33.859375 -1.125 C 31.078125 0.0820312 27.726562 0.6875 23.8125 0.6875 C 19.894531 0.6875 16.460938 0.0195312 13.515625 -1.3125 C 10.578125 -2.65625 8.304688 -4.519531 6.703125 -6.90625 C 5.109375 -9.289062 4.3125 -11.988281 4.3125 -15 C 4.3125 -19.695312 6.054688 -23.46875 9.546875 -26.3125 C 13.046875 -29.15625 18.550781 -30.578125 26.0625 -30.578125 L 39.59375 -30.578125 L 39.59375 -31.359375 C 39.59375 -35.015625 38.5 -37.820312 36.3125 -39.78125 C 34.125 -41.75 30.875 -42.734375 26.5625 -42.734375 C 23.613281 -42.734375 20.71875 -42.273438 17.875 -41.359375 C 15.039062 -40.441406 12.644531 -39.164062 10.6875 -37.53125 L 5.875 -46.453125 C 8.625 -48.546875 11.925781 -50.144531 15.78125 -51.25 C 19.632812 -52.363281 23.71875 -52.921875 28.03125 -52.921875 Z M 26.359375 -8.234375 C 29.429688 -8.234375 32.160156 -8.9375 34.546875 -10.34375 C 36.929688 -11.75 38.613281 -13.753906 39.59375 -16.359375 L 39.59375 -22.4375 L 26.953125 -22.4375 C 19.890625 -22.4375 16.359375 -20.117188 16.359375 -15.484375 C 16.359375 -13.265625 17.238281 -11.5 19 -10.1875 C 20.769531 -8.882812 23.222656 -8.234375 26.359375 -8.234375 Z M 26.359375 -8.234375 "/></g></g></g><g fill="#ff5a19" fill-opacity="1"><g transform="translate(1001.703202, 784.499912)"><g><path d="M 8.03125 -72.71875 L 20.28125 -72.71875 L 20.28125 0 L 8.03125 0 Z M 8.03125 -72.71875 "/></g></g></g><g fill="#ff5a19" fill-opacity="1"><g transform="translate(1023.260928, 784.499912)"><g><path d="M 24.203125 0.6875 C 19.960938 0.6875 15.816406 0.132812 11.765625 -0.96875 C 7.710938 -2.082031 4.476562 -3.488281 2.0625 -5.1875 L 6.765625 -14.5 C 9.117188 -12.9375 11.941406 -11.679688 15.234375 -10.734375 C 18.535156 -9.785156 21.785156 -9.3125 24.984375 -9.3125 C 32.304688 -9.3125 35.96875 -11.238281 35.96875 -15.09375 C 35.96875 -16.925781 35.035156 -18.195312 33.171875 -18.90625 C 31.304688 -19.625 28.316406 -20.3125 24.203125 -20.96875 C 19.890625 -21.625 16.378906 -22.375 13.671875 -23.21875 C 10.960938 -24.070312 8.609375 -25.5625 6.609375 -27.6875 C 4.617188 -29.8125 3.625 -32.765625 3.625 -36.546875 C 3.625 -41.515625 5.695312 -45.484375 9.84375 -48.453125 C 14 -51.429688 19.601562 -52.921875 26.65625 -52.921875 C 30.25 -52.921875 33.84375 -52.507812 37.4375 -51.6875 C 41.03125 -50.875 43.96875 -49.78125 46.25 -48.40625 L 41.546875 -39.109375 C 37.109375 -41.710938 32.113281 -43.015625 26.5625 -43.015625 C 22.96875 -43.015625 20.238281 -42.472656 18.375 -41.390625 C 16.507812 -40.316406 15.578125 -38.898438 15.578125 -37.140625 C 15.578125 -35.179688 16.570312 -33.789062 18.5625 -32.96875 C 20.5625 -32.15625 23.648438 -31.390625 27.828125 -30.671875 C 32.015625 -30.015625 35.445312 -29.257812 38.125 -28.40625 C 40.800781 -27.5625 43.101562 -26.125 45.03125 -24.09375 C 46.957031 -22.070312 47.921875 -19.203125 47.921875 -15.484375 C 47.921875 -10.585938 45.796875 -6.664062 41.546875 -3.71875 C 37.304688 -0.78125 31.523438 0.6875 24.203125 0.6875 Z M 24.203125 0.6875 "/></g></g></g></svg>