<svg xmlns="http://www.w3.org/2000/svg" xmlns:xlink="http://www.w3.org/1999/xlink" width="2000" zoomAndPan="magnify" viewBox="0 0 1500 374.999991" height="500" preserveAspectRatio="xMidYMid meet" version="1.0"><defs><g/><clipPath id="8c7489e351"><rect x="0" width="1162" y="0" height="263"/></clipPath></defs><path fill="#ff5a19" d="M 266.769531 335.183594 L 16.085938 339.683594 C 10.910156 339.785156 6.71875 335.613281 6.882812 330.5625 L 15.410156 44.734375 C 15.554688 40.011719 19.460938 36.207031 24.289062 36.125 L 247.214844 32.113281 C 252.042969 32.03125 256.089844 35.671875 256.398438 40.398438 L 275.605469 325.714844 C 275.972656 330.785156 271.925781 335.082031 266.769531 335.183594 Z M 266.769531 335.183594 " fill-opacity="1" fill-rule="evenodd"/><path fill="#ffd21f" d="M 266.972656 332.8125 L 21.199219 332.8125 C 16.128906 332.8125 12.097656 328.660156 12.34375 323.707031 L 25.945312 43.753906 C 26.171875 39.109375 30.078125 35.46875 34.804688 35.46875 L 253.351562 35.46875 C 258.074219 35.46875 261.984375 39.109375 262.207031 43.753906 L 275.8125 323.707031 C 276.054688 328.660156 272.027344 332.8125 266.972656 332.8125 Z M 266.972656 332.8125 " fill-opacity="1" fill-rule="evenodd"/><path fill="#ff5a19" d="M 144.078125 179.90625 C 102.878906 179.90625 68.820312 149.285156 64.382812 110.03125 C 63.851562 105.386719 67.511719 101.316406 72.277344 101.316406 C 76.347656 101.316406 79.722656 104.34375 80.171875 108.3125 C 83.753906 139.773438 111.0625 164.320312 144.078125 164.320312 C 177.09375 164.320312 204.398438 139.773438 207.960938 108.3125 C 208.410156 104.34375 211.785156 101.316406 215.855469 101.316406 C 220.621094 101.316406 224.28125 105.386719 223.75 110.03125 C 219.332031 149.261719 185.292969 179.90625 144.078125 179.90625 Z M 144.078125 179.90625 " fill-opacity="1" fill-rule="nonzero"/><g transform="matrix(1, 0, 0, 1, 324, 55)"><g clip-path="url(#8c7489e351)"><g fill="#ffd21f" fill-opacity="1"><g transform="translate(0.452399, 208.076671)"><g><path d="M 80.71875 -150.265625 C 99.894531 -150.265625 114.921875 -145.6875 125.796875 -136.53125 C 136.671875 -127.375 142.109375 -114.78125 142.109375 -98.75 C 142.109375 -82.71875 136.671875 -70.15625 125.796875 -61.0625 C 114.921875 -51.976562 99.894531 -47.4375 80.71875 -47.4375 L 40.359375 -47.4375 L 40.359375 0 L 24.46875 0 L 24.46875 -150.265625 Z M 80.28125 -61.390625 C 95.164062 -61.390625 106.546875 -64.644531 114.421875 -71.15625 C 122.296875 -77.675781 126.234375 -86.875 126.234375 -98.75 C 126.234375 -110.914062 122.296875 -120.253906 114.421875 -126.765625 C 106.546875 -133.273438 95.164062 -136.53125 80.28125 -136.53125 L 40.359375 -136.53125 L 40.359375 -61.390625 Z M 80.28125 -61.390625 "/></g></g></g><g fill="#ffd21f" fill-opacity="1"><g transform="translate(139.768439, 208.076671)"><g><path d="M 35.84375 -90.8125 C 39.425781 -98.394531 44.757812 -104.117188 51.84375 -107.984375 C 58.925781 -111.847656 67.691406 -113.78125 78.140625 -113.78125 L 78.140625 -98.96875 L 74.484375 -99.171875 C 62.609375 -99.171875 53.304688 -95.519531 46.578125 -88.21875 C 39.859375 -80.925781 36.5 -70.695312 36.5 -57.53125 L 36.5 0 L 21.25 0 L 21.25 -112.921875 L 35.84375 -112.921875 Z M 35.84375 -90.8125 "/></g></g></g><g fill="#ffd21f" fill-opacity="1"><g transform="translate(211.035837, 208.076671)"><g><path d="M 21.25 -112.921875 L 36.5 -112.921875 L 36.5 0 L 21.25 0 Z M 28.96875 -137.609375 C 25.820312 -137.609375 23.175781 -138.679688 21.03125 -140.828125 C 18.882812 -142.972656 17.8125 -145.546875 17.8125 -148.546875 C 17.8125 -151.410156 18.882812 -153.914062 21.03125 -156.0625 C 23.175781 -158.207031 25.820312 -159.28125 28.96875 -159.28125 C 32.125 -159.28125 34.773438 -158.242188 36.921875 -156.171875 C 39.066406 -154.097656 40.140625 -151.628906 40.140625 -148.765625 C 40.140625 -145.617188 39.066406 -142.972656 36.921875 -140.828125 C 34.773438 -138.679688 32.125 -137.609375 28.96875 -137.609375 Z M 28.96875 -137.609375 "/></g></g></g><g fill="#ffd21f" fill-opacity="1"><g transform="translate(253.967517, 208.076671)"><g><path d="M 162.078125 -113.78125 C 176.242188 -113.78125 187.367188 -109.695312 195.453125 -101.53125 C 203.546875 -93.375 207.59375 -81.351562 207.59375 -65.46875 L 207.59375 0 L 192.34375 0 L 192.34375 -63.96875 C 192.34375 -75.707031 189.515625 -84.648438 183.859375 -90.796875 C 178.210938 -96.953125 170.238281 -100.03125 159.9375 -100.03125 C 148.195312 -100.03125 138.960938 -96.414062 132.234375 -89.1875 C 125.503906 -81.96875 122.140625 -71.988281 122.140625 -59.25 L 122.140625 0 L 106.90625 0 L 106.90625 -63.96875 C 106.90625 -75.707031 104.078125 -84.648438 98.421875 -90.796875 C 92.773438 -96.953125 84.726562 -100.03125 74.28125 -100.03125 C 62.6875 -100.03125 53.488281 -96.414062 46.6875 -89.1875 C 39.894531 -81.96875 36.5 -71.988281 36.5 -59.25 L 36.5 0 L 21.25 0 L 21.25 -112.921875 L 35.84375 -112.921875 L 35.84375 -92.3125 C 39.851562 -99.175781 45.4375 -104.46875 52.59375 -108.1875 C 59.75 -111.914062 67.976562 -113.78125 77.28125 -113.78125 C 86.726562 -113.78125 94.921875 -111.773438 101.859375 -107.765625 C 108.796875 -103.753906 113.984375 -97.816406 117.421875 -89.953125 C 121.578125 -97.390625 127.550781 -103.21875 135.34375 -107.4375 C 143.144531 -111.664062 152.054688 -113.78125 162.078125 -113.78125 Z M 162.078125 -113.78125 "/></g></g></g><g fill="#ffd21f" fill-opacity="1"><g transform="translate(466.913455, 208.076671)"><g><path d="M 119.578125 -51.734375 L 25.109375 -51.734375 C 25.972656 -40.003906 30.484375 -30.523438 38.640625 -23.296875 C 46.796875 -16.066406 57.097656 -12.453125 69.546875 -12.453125 C 76.566406 -12.453125 83.007812 -13.703125 88.875 -16.203125 C 94.738281 -18.710938 99.816406 -22.398438 104.109375 -27.265625 L 112.703125 -17.390625 C 107.691406 -11.378906 101.429688 -6.796875 93.921875 -3.640625 C 86.410156 -0.492188 78.144531 1.078125 69.125 1.078125 C 57.53125 1.078125 47.257812 -1.390625 38.3125 -6.328125 C 29.375 -11.265625 22.398438 -18.097656 17.390625 -26.828125 C 12.378906 -35.554688 9.875 -45.429688 9.875 -56.453125 C 9.875 -67.472656 12.269531 -77.347656 17.0625 -86.078125 C 21.863281 -94.804688 28.445312 -101.601562 36.8125 -106.46875 C 45.1875 -111.34375 54.597656 -113.78125 65.046875 -113.78125 C 75.492188 -113.78125 84.867188 -111.34375 93.171875 -106.46875 C 101.472656 -101.601562 107.984375 -94.84375 112.703125 -86.1875 C 117.421875 -77.53125 119.78125 -67.617188 119.78125 -56.453125 Z M 65.046875 -100.6875 C 54.171875 -100.6875 45.046875 -97.210938 37.671875 -90.265625 C 30.304688 -83.328125 26.117188 -74.273438 25.109375 -63.109375 L 105.1875 -63.109375 C 104.1875 -74.273438 100 -83.328125 92.625 -90.265625 C 85.257812 -97.210938 76.066406 -100.6875 65.046875 -100.6875 Z M 65.046875 -100.6875 "/></g></g></g><g fill="#ff5a19" fill-opacity="1"><g transform="translate(610.531589, 208.076671)"><g><path d="M 20.171875 -150.265625 L 85.875 -150.265625 C 101.894531 -150.265625 116.128906 -147.148438 128.578125 -140.921875 C 141.035156 -134.703125 150.695312 -125.90625 157.5625 -114.53125 C 164.4375 -103.15625 167.875 -90.023438 167.875 -75.140625 C 167.875 -60.253906 164.4375 -47.117188 157.5625 -35.734375 C 150.695312 -24.359375 141.035156 -15.554688 128.578125 -9.328125 C 116.128906 -3.109375 101.894531 0 85.875 0 L 20.171875 0 Z M 84.578125 -23.609375 C 95.597656 -23.609375 105.296875 -25.71875 113.671875 -29.9375 C 122.046875 -34.164062 128.484375 -40.175781 132.984375 -47.96875 C 137.492188 -55.769531 139.75 -64.828125 139.75 -75.140625 C 139.75 -85.441406 137.492188 -94.488281 132.984375 -102.28125 C 128.484375 -110.082031 122.046875 -116.09375 113.671875 -120.3125 C 105.296875 -124.539062 95.597656 -126.65625 84.578125 -126.65625 L 48.09375 -126.65625 L 48.09375 -23.609375 Z M 84.578125 -23.609375 "/></g></g></g><g fill="#ff5a19" fill-opacity="1"><g transform="translate(773.031386, 208.076671)"><g><path d="M 125.375 -56.671875 C 125.375 -54.804688 125.226562 -52.160156 124.9375 -48.734375 L 34.984375 -48.734375 C 36.566406 -40.285156 40.679688 -33.59375 47.328125 -28.65625 C 53.984375 -23.71875 62.25 -21.25 72.125 -21.25 C 84.71875 -21.25 95.09375 -25.398438 103.25 -33.703125 L 117.640625 -17.171875 C 112.484375 -11.015625 105.96875 -6.363281 98.09375 -3.21875 C 90.226562 -0.0703125 81.359375 1.5 71.484375 1.5 C 58.890625 1.5 47.796875 -1.003906 38.203125 -6.015625 C 28.617188 -11.023438 21.210938 -18 15.984375 -26.9375 C 10.765625 -35.882812 8.15625 -46.007812 8.15625 -57.3125 C 8.15625 -68.476562 10.695312 -78.53125 15.78125 -87.46875 C 20.863281 -96.414062 27.910156 -103.394531 36.921875 -108.40625 C 45.941406 -113.414062 56.101562 -115.921875 67.40625 -115.921875 C 78.570312 -115.921875 88.554688 -113.453125 97.359375 -108.515625 C 106.160156 -103.578125 113.03125 -96.632812 117.96875 -87.6875 C 122.90625 -78.75 125.375 -68.410156 125.375 -56.671875 Z M 67.40625 -94.453125 C 58.820312 -94.453125 51.554688 -91.910156 45.609375 -86.828125 C 39.671875 -81.753906 36.0625 -74.992188 34.78125 -66.546875 L 99.828125 -66.546875 C 98.679688 -74.847656 95.171875 -81.570312 89.296875 -86.71875 C 83.429688 -91.875 76.132812 -94.453125 67.40625 -94.453125 Z M 67.40625 -94.453125 "/></g></g></g><g fill="#ff5a19" fill-opacity="1"><g transform="translate(891.739637, 208.076671)"><g><path d="M 61.390625 -115.921875 C 78.285156 -115.921875 91.203125 -111.878906 100.140625 -103.796875 C 109.085938 -95.710938 113.5625 -83.507812 113.5625 -67.1875 L 113.5625 0 L 88.234375 0 L 88.234375 -13.953125 C 84.941406 -8.941406 80.253906 -5.113281 74.171875 -2.46875 C 68.085938 0.175781 60.753906 1.5 52.171875 1.5 C 43.578125 1.5 36.0625 0.0351562 29.625 -2.890625 C 23.1875 -5.828125 18.210938 -9.90625 14.703125 -15.125 C 11.203125 -20.351562 9.453125 -26.257812 9.453125 -32.84375 C 9.453125 -43.144531 13.28125 -51.410156 20.9375 -57.640625 C 28.59375 -63.867188 40.648438 -66.984375 57.109375 -66.984375 L 86.734375 -66.984375 L 86.734375 -68.6875 C 86.734375 -76.707031 84.332031 -82.863281 79.53125 -87.15625 C 74.738281 -91.445312 67.617188 -93.59375 58.171875 -93.59375 C 51.734375 -93.59375 45.398438 -92.59375 39.171875 -90.59375 C 32.953125 -88.59375 27.695312 -85.800781 23.40625 -82.21875 L 12.875 -101.75 C 18.882812 -106.332031 26.113281 -109.835938 34.5625 -112.265625 C 43.007812 -114.703125 51.953125 -115.921875 61.390625 -115.921875 Z M 57.75 -18.03125 C 64.476562 -18.03125 70.453125 -19.566406 75.671875 -22.640625 C 80.890625 -25.722656 84.578125 -30.125 86.734375 -35.84375 L 86.734375 -49.15625 L 59.03125 -49.15625 C 43.570312 -49.15625 35.84375 -44.078125 35.84375 -33.921875 C 35.84375 -29.054688 37.773438 -25.191406 41.640625 -22.328125 C 45.503906 -19.460938 50.875 -18.03125 57.75 -18.03125 Z M 57.75 -18.03125 "/></g></g></g><g fill="#ff5a19" fill-opacity="1"><g transform="translate(1007.227903, 208.076671)"><g><path d="M 17.609375 -159.28125 L 44.4375 -159.28125 L 44.4375 0 L 17.609375 0 Z M 17.609375 -159.28125 "/></g></g></g><g fill="#ff5a19" fill-opacity="1"><g transform="translate(1054.452879, 208.076671)"><g><path d="M 53.03125 1.5 C 43.71875 1.5 34.625 0.285156 25.75 -2.140625 C 16.882812 -4.578125 9.804688 -7.65625 4.515625 -11.375 L 14.8125 -31.765625 C 19.96875 -28.335938 26.15625 -25.582031 33.375 -23.5 C 40.601562 -21.425781 47.722656 -20.390625 54.734375 -20.390625 C 70.765625 -20.390625 78.78125 -24.613281 78.78125 -33.0625 C 78.78125 -37.0625 76.738281 -39.847656 72.65625 -41.421875 C 68.582031 -43.003906 62.039062 -44.507812 53.03125 -45.9375 C 43.582031 -47.375 35.882812 -49.019531 29.9375 -50.875 C 24 -52.738281 18.847656 -55.992188 14.484375 -60.640625 C 10.117188 -65.296875 7.9375 -71.773438 7.9375 -80.078125 C 7.9375 -90.953125 12.476562 -99.644531 21.5625 -106.15625 C 30.65625 -112.664062 42.929688 -115.921875 58.390625 -115.921875 C 66.265625 -115.921875 74.132812 -115.023438 82 -113.234375 C 89.875 -111.453125 96.316406 -109.054688 101.328125 -106.046875 L 91.015625 -85.65625 C 81.285156 -91.375 70.335938 -94.234375 58.171875 -94.234375 C 50.304688 -94.234375 44.332031 -93.050781 40.25 -90.6875 C 36.175781 -88.332031 34.140625 -85.222656 34.140625 -81.359375 C 34.140625 -77.066406 36.320312 -74.023438 40.6875 -72.234375 C 45.050781 -70.441406 51.8125 -68.757812 60.96875 -67.1875 C 70.125 -65.757812 77.632812 -64.113281 83.5 -62.25 C 89.375 -60.394531 94.421875 -57.25 98.640625 -52.8125 C 102.859375 -48.375 104.96875 -42.078125 104.96875 -33.921875 C 104.96875 -23.179688 100.316406 -14.59375 91.015625 -8.15625 C 81.710938 -1.71875 69.050781 1.5 53.03125 1.5 Z M 53.03125 1.5 "/></g></g></g></g></g></svg>