<svg xmlns="http://www.w3.org/2000/svg" xmlns:xlink="http://www.w3.org/1999/xlink" width="2000" zoomAndPan="magnify" viewBox="0 0 1500 705.000001" height="940" preserveAspectRatio="xMidYMid meet" version="1.0"><defs><g/><clipPath id="405632ab40"><path d="M 4 10 L 1498.9375 10 L 1498.9375 688 L 4 688 Z M 4 10 " clip-rule="nonzero"/></clipPath><clipPath id="d95b5d49ac"><path d="M 684 0.546875 L 1494.9375 0.546875 L 1494.9375 362 L 684 362 Z M 684 0.546875 " clip-rule="nonzero"/></clipPath><clipPath id="fa5f5d6a42"><rect x="0" width="811" y="0" height="362"/></clipPath><clipPath id="f5be8af6bf"><rect x="0" width="767" y="0" height="362"/></clipPath><clipPath id="dfff42204d"><rect x="0" width="1495" y="0" height="678"/></clipPath></defs><g clip-path="url(#405632ab40)"><g transform="matrix(1, 0, 0, 1, 4, 10)"><g clip-path="url(#dfff42204d)"><path fill="#ff5a19" d="M 567.019531 667.015625 L 21.265625 676.8125 C 9.996094 677.035156 0.867188 667.949219 1.226562 656.949219 L 19.796875 34.6875 C 20.105469 24.398438 28.613281 16.117188 39.121094 15.9375 L 524.445312 7.207031 C 534.957031 7.03125 543.773438 14.957031 544.441406 25.246094 L 586.257812 646.394531 C 587.0625 657.441406 578.242188 666.792969 567.019531 667.015625 Z M 567.019531 667.015625 " fill-opacity="1" fill-rule="evenodd"/><path fill="#ffd21f" d="M 567.464844 661.847656 L 32.398438 661.847656 C 21.355469 661.847656 12.582031 652.808594 13.117188 642.03125 L 42.730469 32.546875 C 43.21875 22.4375 51.726562 14.511719 62.011719 14.511719 L 537.808594 14.511719 C 548.09375 14.511719 556.601562 22.4375 557.089844 32.546875 L 586.703125 642.03125 C 587.238281 652.808594 578.464844 661.847656 567.464844 661.847656 Z M 567.464844 661.847656 " fill-opacity="1" fill-rule="evenodd"/><path fill="#ff5a19" d="M 299.910156 328.960938 C 210.21875 328.960938 136.070312 262.296875 126.40625 176.835938 C 125.25 166.726562 133.222656 157.863281 143.597656 157.863281 C 152.460938 157.863281 159.808594 164.457031 160.789062 173.09375 C 168.582031 241.585938 228.03125 295.027344 299.910156 295.027344 C 371.785156 295.027344 431.238281 241.585938 438.988281 173.09375 C 439.96875 164.457031 447.316406 157.863281 456.175781 157.863281 C 466.554688 157.863281 474.523438 166.726562 473.367188 176.835938 C 463.746094 262.25 389.644531 328.960938 299.910156 328.960938 Z M 299.910156 328.960938 " fill-opacity="1" fill-rule="nonzero"/><g clip-path="url(#d95b5d49ac)"><g transform="matrix(1, 0, 0, 1, 684, 0)"><g clip-path="url(#fa5f5d6a42)"><g fill="#ffd21f" fill-opacity="1"><g transform="translate(0.186166, 286.282744)"><g><path d="M 111.09375 -206.8125 C 137.488281 -206.8125 158.171875 -200.507812 173.140625 -187.90625 C 188.109375 -175.300781 195.59375 -157.96875 195.59375 -135.90625 C 195.59375 -113.84375 188.109375 -96.554688 173.140625 -84.046875 C 158.171875 -71.546875 137.488281 -65.296875 111.09375 -65.296875 L 55.546875 -65.296875 L 55.546875 0 L 33.6875 0 L 33.6875 -206.8125 Z M 110.5 -84.5 C 130.988281 -84.5 146.644531 -88.976562 157.46875 -97.9375 C 168.300781 -106.90625 173.71875 -119.5625 173.71875 -135.90625 C 173.71875 -152.644531 168.300781 -165.492188 157.46875 -174.453125 C 146.644531 -183.421875 130.988281 -187.90625 110.5 -187.90625 L 55.546875 -187.90625 L 55.546875 -84.5 Z M 110.5 -84.5 "/></g></g></g><g fill="#ffd21f" fill-opacity="1"><g transform="translate(191.890991, 286.282744)"><g><path d="M 49.34375 -124.984375 C 54.269531 -135.421875 61.609375 -143.296875 71.359375 -148.609375 C 81.109375 -153.929688 93.171875 -156.59375 107.546875 -156.59375 L 107.546875 -136.203125 L 102.515625 -136.5 C 86.171875 -136.5 73.367188 -131.472656 64.109375 -121.421875 C 54.859375 -111.378906 50.234375 -97.300781 50.234375 -79.1875 L 50.234375 0 L 29.25 0 L 29.25 -155.40625 L 49.34375 -155.40625 Z M 49.34375 -124.984375 "/></g></g></g><g fill="#ffd21f" fill-opacity="1"><g transform="translate(289.956897, 286.282744)"><g><path d="M 29.25 -155.40625 L 50.234375 -155.40625 L 50.234375 0 L 29.25 0 Z M 39.875 -189.390625 C 35.539062 -189.390625 31.894531 -190.863281 28.9375 -193.8125 C 25.988281 -196.769531 24.515625 -200.316406 24.515625 -204.453125 C 24.515625 -208.390625 25.988281 -211.832031 28.9375 -214.78125 C 31.894531 -217.738281 35.539062 -219.21875 39.875 -219.21875 C 44.207031 -219.21875 47.851562 -217.789062 50.8125 -214.9375 C 53.769531 -212.082031 55.25 -208.6875 55.25 -204.75 C 55.25 -200.414062 53.769531 -196.769531 50.8125 -193.8125 C 47.851562 -190.863281 44.207031 -189.390625 39.875 -189.390625 Z M 39.875 -189.390625 "/></g></g></g><g fill="#ffd21f" fill-opacity="1"><g transform="translate(349.031113, 286.282744)"><g><path d="M 223.0625 -156.59375 C 242.5625 -156.59375 257.875 -150.976562 269 -139.75 C 280.132812 -128.519531 285.703125 -111.972656 285.703125 -90.109375 L 285.703125 0 L 264.71875 0 L 264.71875 -88.046875 C 264.71875 -104.191406 260.828125 -116.5 253.046875 -124.96875 C 245.273438 -133.445312 234.296875 -137.6875 220.109375 -137.6875 C 203.960938 -137.6875 191.257812 -132.710938 182 -122.765625 C 172.738281 -112.816406 168.109375 -99.078125 168.109375 -81.546875 L 168.109375 0 L 147.140625 0 L 147.140625 -88.046875 C 147.140625 -104.191406 143.25 -116.5 135.46875 -124.96875 C 127.6875 -133.445312 116.609375 -137.6875 102.234375 -137.6875 C 86.273438 -137.6875 73.617188 -132.710938 64.265625 -122.765625 C 54.910156 -112.816406 50.234375 -99.078125 50.234375 -81.546875 L 50.234375 0 L 29.25 0 L 29.25 -155.40625 L 49.34375 -155.40625 L 49.34375 -127.046875 C 54.851562 -136.503906 62.53125 -143.789062 72.375 -148.90625 C 82.226562 -154.03125 93.554688 -156.59375 106.359375 -156.59375 C 119.359375 -156.59375 130.632812 -153.832031 140.1875 -148.3125 C 149.738281 -142.800781 156.878906 -134.628906 161.609375 -123.796875 C 167.328125 -134.035156 175.550781 -142.0625 186.28125 -147.875 C 197.019531 -153.6875 209.28125 -156.59375 223.0625 -156.59375 Z M 223.0625 -156.59375 "/></g></g></g><g fill="#ffd21f" fill-opacity="1"><g transform="translate(642.05513, 286.282744)"><g><path d="M 164.5625 -71.203125 L 34.5625 -71.203125 C 35.75 -55.054688 41.953125 -42.007812 53.171875 -32.0625 C 64.398438 -22.113281 78.585938 -17.140625 95.734375 -17.140625 C 105.378906 -17.140625 114.238281 -18.863281 122.3125 -22.3125 C 130.394531 -25.757812 137.390625 -30.828125 143.296875 -37.515625 L 155.109375 -23.9375 C 148.210938 -15.65625 139.59375 -9.347656 129.25 -5.015625 C 118.914062 -0.679688 107.546875 1.484375 95.140625 1.484375 C 79.179688 1.484375 65.046875 -1.910156 52.734375 -8.703125 C 40.421875 -15.503906 30.816406 -24.910156 23.921875 -36.921875 C 17.035156 -48.941406 13.59375 -62.535156 13.59375 -77.703125 C 13.59375 -92.867188 16.890625 -106.457031 23.484375 -118.46875 C 30.085938 -130.488281 39.148438 -139.847656 50.671875 -146.546875 C 62.191406 -153.242188 75.140625 -156.59375 89.515625 -156.59375 C 103.898438 -156.59375 116.800781 -153.242188 128.21875 -146.546875 C 139.644531 -139.847656 148.609375 -130.539062 155.109375 -118.625 C 161.609375 -106.707031 164.859375 -93.066406 164.859375 -77.703125 Z M 89.515625 -138.5625 C 74.546875 -138.5625 61.988281 -133.785156 51.84375 -124.234375 C 41.707031 -114.679688 35.945312 -102.222656 34.5625 -86.859375 L 144.765625 -86.859375 C 143.390625 -102.222656 137.628906 -114.679688 127.484375 -124.234375 C 117.335938 -133.785156 104.679688 -138.5625 89.515625 -138.5625 Z M 89.515625 -138.5625 "/></g></g></g></g></g></g><g transform="matrix(1, 0, 0, 1, 684, 314)"><g clip-path="url(#f5be8af6bf)"><g fill="#ff5a19" fill-opacity="1"><g transform="translate(0.186166, 286.446457)"><g><path d="M 27.765625 -206.8125 L 118.1875 -206.8125 C 140.238281 -206.8125 159.832031 -202.523438 176.96875 -193.953125 C 194.113281 -185.390625 207.410156 -173.28125 216.859375 -157.625 C 226.316406 -141.96875 231.046875 -123.894531 231.046875 -103.40625 C 231.046875 -82.925781 226.316406 -64.851562 216.859375 -49.1875 C 207.410156 -33.53125 194.113281 -21.414062 176.96875 -12.84375 C 159.832031 -4.28125 140.238281 0 118.1875 0 L 27.765625 0 Z M 116.40625 -32.5 C 131.570312 -32.5 144.914062 -35.40625 156.4375 -41.21875 C 167.957031 -47.03125 176.820312 -55.300781 183.03125 -66.03125 C 189.238281 -76.769531 192.34375 -89.226562 192.34375 -103.40625 C 192.34375 -117.59375 189.238281 -130.050781 183.03125 -140.78125 C 176.820312 -151.519531 167.957031 -159.789062 156.4375 -165.59375 C 144.914062 -171.40625 131.570312 -174.3125 116.40625 -174.3125 L 66.1875 -174.3125 L 66.1875 -32.5 Z M 116.40625 -32.5 "/></g></g></g><g fill="#ff5a19" fill-opacity="1"><g transform="translate(223.793333, 286.446457)"><g><path d="M 172.546875 -78 C 172.546875 -75.4375 172.347656 -71.789062 171.953125 -67.0625 L 48.15625 -67.0625 C 50.320312 -55.445312 55.984375 -46.238281 65.140625 -39.4375 C 74.304688 -32.644531 85.679688 -29.25 99.265625 -29.25 C 116.597656 -29.25 130.878906 -34.960938 142.109375 -46.390625 L 161.90625 -23.640625 C 154.8125 -15.171875 145.847656 -8.769531 135.015625 -4.4375 C 124.179688 -0.101562 111.972656 2.0625 98.390625 2.0625 C 81.054688 2.0625 65.789062 -1.378906 52.59375 -8.265625 C 39.394531 -15.160156 29.203125 -24.765625 22.015625 -37.078125 C 14.828125 -49.390625 11.234375 -63.328125 11.234375 -78.890625 C 11.234375 -94.253906 14.726562 -108.085938 21.71875 -120.390625 C 28.707031 -132.703125 38.40625 -142.304688 50.8125 -149.203125 C 63.226562 -156.097656 77.210938 -159.546875 92.765625 -159.546875 C 108.128906 -159.546875 121.867188 -156.144531 133.984375 -149.34375 C 146.097656 -142.550781 155.550781 -133 162.34375 -120.6875 C 169.144531 -108.382812 172.546875 -94.15625 172.546875 -78 Z M 92.765625 -130 C 80.953125 -130 70.957031 -126.5 62.78125 -119.5 C 54.601562 -112.507812 49.628906 -103.207031 47.859375 -91.59375 L 137.390625 -91.59375 C 135.804688 -103.019531 130.976562 -112.273438 122.90625 -119.359375 C 114.832031 -126.453125 104.785156 -130 92.765625 -130 Z M 92.765625 -130 "/></g></g></g><g fill="#ff5a19" fill-opacity="1"><g transform="translate(387.140659, 286.446457)"><g><path d="M 84.5 -159.546875 C 107.738281 -159.546875 125.515625 -153.976562 137.828125 -142.84375 C 150.140625 -131.71875 156.296875 -114.929688 156.296875 -92.484375 L 156.296875 0 L 121.4375 0 L 121.4375 -19.203125 C 116.90625 -12.304688 110.453125 -7.035156 102.078125 -3.390625 C 93.703125 0.242188 83.609375 2.0625 71.796875 2.0625 C 59.972656 2.0625 49.628906 0.046875 40.765625 -3.984375 C 31.910156 -8.023438 25.066406 -13.640625 20.234375 -20.828125 C 15.410156 -28.015625 13 -36.140625 13 -45.203125 C 13 -59.390625 18.265625 -70.765625 28.796875 -79.328125 C 39.335938 -87.898438 55.9375 -92.1875 78.59375 -92.1875 L 119.359375 -92.1875 L 119.359375 -94.546875 C 119.359375 -105.578125 116.054688 -114.046875 109.453125 -119.953125 C 102.859375 -125.859375 93.0625 -128.8125 80.0625 -128.8125 C 71.195312 -128.8125 62.476562 -127.429688 53.90625 -124.671875 C 45.34375 -121.921875 38.109375 -118.082031 32.203125 -113.15625 L 17.734375 -140.046875 C 26.003906 -146.347656 35.945312 -151.171875 47.5625 -154.515625 C 59.1875 -157.867188 71.5 -159.546875 84.5 -159.546875 Z M 79.484375 -24.8125 C 88.734375 -24.8125 96.953125 -26.925781 104.140625 -31.15625 C 111.335938 -35.394531 116.410156 -41.457031 119.359375 -49.34375 L 119.359375 -67.65625 L 81.25 -67.65625 C 59.976562 -67.65625 49.34375 -60.664062 49.34375 -46.6875 C 49.34375 -39.988281 52 -34.664062 57.3125 -30.71875 C 62.632812 -26.78125 70.023438 -24.8125 79.484375 -24.8125 Z M 79.484375 -24.8125 "/></g></g></g><g fill="#ff5a19" fill-opacity="1"><g transform="translate(546.057101, 286.446457)"><g><path d="M 24.234375 -219.21875 L 61.15625 -219.21875 L 61.15625 0 L 24.234375 0 Z M 24.234375 -219.21875 "/></g></g></g><g fill="#ff5a19" fill-opacity="1"><g transform="translate(611.039163, 286.446457)"><g><path d="M 72.984375 2.0625 C 60.171875 2.0625 47.660156 0.390625 35.453125 -2.953125 C 23.242188 -6.304688 13.492188 -10.539062 6.203125 -15.65625 L 20.390625 -43.734375 C 27.472656 -39.003906 35.988281 -35.207031 45.9375 -32.34375 C 55.882812 -29.488281 65.6875 -28.0625 75.34375 -28.0625 C 97.40625 -28.0625 108.4375 -33.875 108.4375 -45.5 C 108.4375 -51.007812 105.628906 -54.847656 100.015625 -57.015625 C 94.398438 -59.179688 85.390625 -61.253906 72.984375 -63.234375 C 59.984375 -65.203125 49.394531 -67.460938 41.21875 -70.015625 C 33.039062 -72.578125 25.945312 -77.054688 19.9375 -83.453125 C 13.9375 -89.859375 10.9375 -98.773438 10.9375 -110.203125 C 10.9375 -125.171875 17.1875 -137.132812 29.6875 -146.09375 C 42.195312 -155.0625 59.085938 -159.546875 80.359375 -159.546875 C 91.191406 -159.546875 102.023438 -158.3125 112.859375 -155.84375 C 123.691406 -153.382812 132.554688 -150.085938 139.453125 -145.953125 L 125.265625 -117.890625 C 111.878906 -125.765625 96.8125 -129.703125 80.0625 -129.703125 C 69.226562 -129.703125 61.003906 -128.078125 55.390625 -124.828125 C 49.785156 -121.578125 46.984375 -117.296875 46.984375 -111.984375 C 46.984375 -106.066406 49.984375 -101.878906 55.984375 -99.421875 C 61.992188 -96.960938 71.300781 -94.648438 83.90625 -92.484375 C 96.507812 -90.503906 106.847656 -88.234375 114.921875 -85.671875 C 123.003906 -83.117188 129.945312 -78.785156 135.75 -72.671875 C 141.5625 -66.566406 144.46875 -57.90625 144.46875 -46.6875 C 144.46875 -31.90625 138.066406 -20.082031 125.265625 -11.21875 C 112.460938 -2.363281 95.035156 2.0625 72.984375 2.0625 Z M 72.984375 2.0625 "/></g></g></g></g></g></g></g></g></svg>