<svg xmlns="http://www.w3.org/2000/svg" xmlns:xlink="http://www.w3.org/1999/xlink" width="2000" zoomAndPan="magnify" viewBox="0 0 1500 1499.999933" height="2000" preserveAspectRatio="xMidYMid meet" version="1.0"><defs><g/><clipPath id="d8be5c5b84"><rect x="0" width="325" y="0" height="145"/></clipPath><clipPath id="1115a2b55b"><rect x="0" width="307" y="0" height="145"/></clipPath></defs><path fill="#ff5a19" d="M 675.265625 878.070312 L 457.585938 881.976562 C 453.09375 882.066406 449.453125 878.441406 449.59375 874.054688 L 457 625.886719 C 457.125 621.785156 460.519531 618.480469 464.710938 618.410156 L 658.285156 614.929688 C 662.476562 614.859375 665.992188 618.019531 666.257812 622.121094 L 682.9375 869.847656 C 683.257812 874.25 679.742188 877.980469 675.265625 878.070312 Z M 675.265625 878.070312 " fill-opacity="1" fill-rule="evenodd"/><path fill="#3a003d" d="M 675.441406 876.011719 L 462.027344 876.011719 C 457.621094 876.011719 454.125 872.40625 454.335938 868.105469 L 466.148438 625.035156 C 466.34375 621.003906 469.738281 617.84375 473.839844 617.84375 L 663.613281 617.84375 C 667.714844 617.84375 671.109375 621.003906 671.304688 625.035156 L 683.117188 868.105469 C 683.328125 872.40625 679.828125 876.011719 675.441406 876.011719 Z M 675.441406 876.011719 " fill-opacity="1" fill-rule="evenodd"/><path fill="#ff5a19" d="M 568.726562 743.25 C 532.953125 743.25 503.378906 716.660156 499.523438 682.578125 C 499.0625 678.546875 502.242188 675.011719 506.378906 675.011719 C 509.914062 675.011719 512.847656 677.640625 513.238281 681.085938 C 516.34375 708.402344 540.058594 729.714844 568.726562 729.714844 C 597.394531 729.714844 621.105469 708.402344 624.199219 681.085938 C 624.589844 677.640625 627.519531 675.011719 631.054688 675.011719 C 635.191406 675.011719 638.371094 678.546875 637.910156 682.578125 C 634.074219 716.644531 604.515625 743.25 568.726562 743.25 Z M 568.726562 743.25 " fill-opacity="1" fill-rule="nonzero"/><g transform="matrix(1, 0, 0, 1, 722, 612)"><g clip-path="url(#d8be5c5b84)"><g fill="#000000" fill-opacity="1"><g transform="translate(0.290108, 114.363082)"><g><path d="M 44.34375 -82.5625 C 54.882812 -82.5625 63.140625 -80.046875 69.109375 -75.015625 C 75.085938 -69.984375 78.078125 -63.066406 78.078125 -54.265625 C 78.078125 -45.453125 75.085938 -38.546875 69.109375 -33.546875 C 63.140625 -28.554688 54.882812 -26.0625 44.34375 -26.0625 L 22.171875 -26.0625 L 22.171875 0 L 13.453125 0 L 13.453125 -82.5625 Z M 44.109375 -33.734375 C 52.285156 -33.734375 58.535156 -35.519531 62.859375 -39.09375 C 67.191406 -42.675781 69.359375 -47.734375 69.359375 -54.265625 C 69.359375 -60.941406 67.191406 -66.066406 62.859375 -69.640625 C 58.535156 -73.222656 52.285156 -75.015625 44.109375 -75.015625 L 22.171875 -75.015625 L 22.171875 -33.734375 Z M 44.109375 -33.734375 "/></g></g></g><g fill="#000000" fill-opacity="1"><g transform="translate(76.830109, 114.363082)"><g><path d="M 19.703125 -49.890625 C 21.660156 -54.054688 24.585938 -57.203125 28.484375 -59.328125 C 32.378906 -61.453125 37.195312 -62.515625 42.9375 -62.515625 L 42.9375 -54.375 L 40.9375 -54.5 C 34.40625 -54.5 29.289062 -52.492188 25.59375 -48.484375 C 21.894531 -44.472656 20.046875 -38.847656 20.046875 -31.609375 L 20.046875 0 L 11.671875 0 L 11.671875 -62.046875 L 19.703125 -62.046875 Z M 19.703125 -49.890625 "/></g></g></g><g fill="#000000" fill-opacity="1"><g transform="translate(115.983869, 114.363082)"><g><path d="M 11.671875 -62.046875 L 20.046875 -62.046875 L 20.046875 0 L 11.671875 0 Z M 15.921875 -75.609375 C 14.191406 -75.609375 12.738281 -76.195312 11.5625 -77.375 C 10.382812 -78.550781 9.796875 -79.96875 9.796875 -81.625 C 9.796875 -83.195312 10.382812 -84.570312 11.5625 -85.75 C 12.738281 -86.925781 14.191406 -87.515625 15.921875 -87.515625 C 17.648438 -87.515625 19.101562 -86.941406 20.28125 -85.796875 C 21.46875 -84.660156 22.0625 -83.304688 22.0625 -81.734375 C 22.0625 -80.003906 21.46875 -78.550781 20.28125 -77.375 C 19.101562 -76.195312 17.648438 -75.609375 15.921875 -75.609375 Z M 15.921875 -75.609375 "/></g></g></g><g fill="#000000" fill-opacity="1"><g transform="translate(139.56982, 114.363082)"><g><path d="M 89.046875 -62.515625 C 96.835938 -62.515625 102.953125 -60.269531 107.390625 -55.78125 C 111.835938 -51.300781 114.0625 -44.695312 114.0625 -35.96875 L 114.0625 0 L 105.6875 0 L 105.6875 -35.15625 C 105.6875 -41.601562 104.132812 -46.515625 101.03125 -49.890625 C 97.925781 -53.273438 93.539062 -54.96875 87.875 -54.96875 C 81.425781 -54.96875 76.351562 -52.976562 72.65625 -49 C 68.957031 -45.03125 67.109375 -39.550781 67.109375 -32.5625 L 67.109375 0 L 58.734375 0 L 58.734375 -35.15625 C 58.734375 -41.601562 57.179688 -46.515625 54.078125 -49.890625 C 50.972656 -53.273438 46.550781 -54.96875 40.8125 -54.96875 C 34.4375 -54.96875 29.378906 -52.976562 25.640625 -49 C 21.910156 -45.03125 20.046875 -39.550781 20.046875 -32.5625 L 20.046875 0 L 11.671875 0 L 11.671875 -62.046875 L 19.703125 -62.046875 L 19.703125 -50.71875 C 21.898438 -54.488281 24.960938 -57.394531 28.890625 -59.4375 C 32.828125 -61.488281 37.351562 -62.515625 42.46875 -62.515625 C 47.65625 -62.515625 52.15625 -61.410156 55.96875 -59.203125 C 59.78125 -57.003906 62.628906 -53.742188 64.515625 -49.421875 C 66.796875 -53.515625 70.078125 -56.71875 74.359375 -59.03125 C 78.648438 -61.351562 83.546875 -62.515625 89.046875 -62.515625 Z M 89.046875 -62.515625 "/></g></g></g><g fill="#000000" fill-opacity="1"><g transform="translate(256.562487, 114.363082)"><g><path d="M 65.703125 -28.421875 L 13.796875 -28.421875 C 14.273438 -21.972656 16.753906 -16.765625 21.234375 -12.796875 C 25.710938 -8.828125 31.375 -6.84375 38.21875 -6.84375 C 42.070312 -6.84375 45.609375 -7.53125 48.828125 -8.90625 C 52.054688 -10.28125 54.847656 -12.304688 57.203125 -14.984375 L 61.921875 -9.546875 C 59.171875 -6.242188 55.726562 -3.726562 51.59375 -2 C 47.46875 -0.269531 42.929688 0.59375 37.984375 0.59375 C 31.609375 0.59375 25.960938 -0.757812 21.046875 -3.46875 C 16.140625 -6.1875 12.304688 -9.941406 9.546875 -14.734375 C 6.796875 -19.535156 5.421875 -24.960938 5.421875 -31.015625 C 5.421875 -37.078125 6.738281 -42.503906 9.375 -47.296875 C 12.007812 -52.097656 15.625 -55.832031 20.21875 -58.5 C 24.820312 -61.175781 29.992188 -62.515625 35.734375 -62.515625 C 41.472656 -62.515625 46.625 -61.175781 51.1875 -58.5 C 55.75 -55.832031 59.328125 -52.117188 61.921875 -47.359375 C 64.515625 -42.597656 65.8125 -37.148438 65.8125 -31.015625 Z M 35.734375 -55.3125 C 29.765625 -55.3125 24.753906 -53.40625 20.703125 -49.59375 C 16.648438 -45.78125 14.347656 -40.804688 13.796875 -34.671875 L 57.796875 -34.671875 C 57.242188 -40.804688 54.941406 -45.78125 50.890625 -49.59375 C 46.847656 -53.40625 41.796875 -55.3125 35.734375 -55.3125 Z M 35.734375 -55.3125 "/></g></g></g></g></g><g transform="matrix(1, 0, 0, 1, 722, 737)"><g clip-path="url(#1115a2b55b)"><g fill="#ff5a19" fill-opacity="1"><g transform="translate(0.290108, 114.796)"><g><path d="M 11.09375 -82.5625 L 47.1875 -82.5625 C 55.988281 -82.5625 63.8125 -80.851562 70.65625 -77.4375 C 77.5 -74.019531 82.804688 -69.179688 86.578125 -62.921875 C 90.347656 -56.671875 92.234375 -49.457031 92.234375 -41.28125 C 92.234375 -33.101562 90.347656 -25.890625 86.578125 -19.640625 C 82.804688 -13.390625 77.5 -8.550781 70.65625 -5.125 C 63.8125 -1.707031 55.988281 0 47.1875 0 L 11.09375 0 Z M 46.46875 -12.96875 C 52.53125 -12.96875 57.859375 -14.128906 62.453125 -16.453125 C 67.054688 -18.773438 70.59375 -22.078125 73.0625 -26.359375 C 75.539062 -30.648438 76.78125 -35.625 76.78125 -41.28125 C 76.78125 -46.945312 75.539062 -51.921875 73.0625 -56.203125 C 70.59375 -60.492188 67.054688 -63.796875 62.453125 -66.109375 C 57.859375 -68.429688 52.53125 -69.59375 46.46875 -69.59375 L 26.421875 -69.59375 L 26.421875 -12.96875 Z M 46.46875 -12.96875 "/></g></g></g><g fill="#ff5a19" fill-opacity="1"><g transform="translate(89.567427, 114.796)"><g><path d="M 68.890625 -31.140625 C 68.890625 -30.117188 68.8125 -28.664062 68.65625 -26.78125 L 19.21875 -26.78125 C 20.09375 -22.132812 22.359375 -18.453125 26.015625 -15.734375 C 29.671875 -13.023438 34.207031 -11.671875 39.625 -11.671875 C 46.550781 -11.671875 52.253906 -13.953125 56.734375 -18.515625 L 64.640625 -9.4375 C 61.804688 -6.050781 58.226562 -3.492188 53.90625 -1.765625 C 49.582031 -0.0351562 44.707031 0.828125 39.28125 0.828125 C 32.363281 0.828125 26.269531 -0.546875 21 -3.296875 C 15.726562 -6.054688 11.65625 -9.890625 8.78125 -14.796875 C 5.914062 -19.710938 4.484375 -25.28125 4.484375 -31.5 C 4.484375 -37.625 5.878906 -43.144531 8.671875 -48.0625 C 11.460938 -52.976562 15.332031 -56.8125 20.28125 -59.5625 C 25.238281 -62.3125 30.820312 -63.6875 37.03125 -63.6875 C 43.164062 -63.6875 48.648438 -62.332031 53.484375 -59.625 C 58.328125 -56.914062 62.101562 -53.101562 64.8125 -48.1875 C 67.53125 -43.269531 68.890625 -37.585938 68.890625 -31.140625 Z M 37.03125 -51.90625 C 32.3125 -51.90625 28.320312 -50.507812 25.0625 -47.71875 C 21.800781 -44.925781 19.816406 -41.207031 19.109375 -36.5625 L 54.84375 -36.5625 C 54.21875 -41.125 52.289062 -44.820312 49.0625 -47.65625 C 45.84375 -50.488281 41.832031 -51.90625 37.03125 -51.90625 Z M 37.03125 -51.90625 "/></g></g></g><g fill="#ff5a19" fill-opacity="1"><g transform="translate(154.785424, 114.796)"><g><path d="M 33.734375 -63.6875 C 43.015625 -63.6875 50.109375 -61.460938 55.015625 -57.015625 C 59.929688 -52.578125 62.390625 -45.878906 62.390625 -36.921875 L 62.390625 0 L 48.484375 0 L 48.484375 -7.671875 C 46.671875 -4.910156 44.09375 -2.800781 40.75 -1.34375 C 37.40625 0.101562 33.375 0.828125 28.65625 0.828125 C 23.9375 0.828125 19.804688 0.0195312 16.265625 -1.59375 C 12.734375 -3.207031 10.003906 -5.445312 8.078125 -8.3125 C 6.148438 -11.1875 5.1875 -14.429688 5.1875 -18.046875 C 5.1875 -23.710938 7.289062 -28.253906 11.5 -31.671875 C 15.707031 -35.085938 22.332031 -36.796875 31.375 -36.796875 L 47.65625 -36.796875 L 47.65625 -37.75 C 47.65625 -42.144531 46.335938 -45.519531 43.703125 -47.875 C 41.066406 -50.238281 37.15625 -51.421875 31.96875 -51.421875 C 28.425781 -51.421875 24.941406 -50.867188 21.515625 -49.765625 C 18.097656 -48.671875 15.210938 -47.140625 12.859375 -45.171875 L 7.078125 -55.90625 C 10.378906 -58.425781 14.347656 -60.351562 18.984375 -61.6875 C 23.628906 -63.019531 28.546875 -63.6875 33.734375 -63.6875 Z M 31.734375 -9.90625 C 35.421875 -9.90625 38.703125 -10.75 41.578125 -12.4375 C 44.453125 -14.132812 46.476562 -16.554688 47.65625 -19.703125 L 47.65625 -27.015625 L 32.4375 -27.015625 C 23.945312 -27.015625 19.703125 -24.222656 19.703125 -18.640625 C 19.703125 -15.960938 20.757812 -13.835938 22.875 -12.265625 C 25 -10.691406 27.953125 -9.90625 31.734375 -9.90625 Z M 31.734375 -9.90625 "/></g></g></g><g fill="#ff5a19" fill-opacity="1"><g transform="translate(218.234347, 114.796)"><g><path d="M 9.671875 -87.515625 L 24.421875 -87.515625 L 24.421875 0 L 9.671875 0 Z M 9.671875 -87.515625 "/></g></g></g><g fill="#ff5a19" fill-opacity="1"><g transform="translate(244.179062, 114.796)"><g><path d="M 29.140625 0.828125 C 24.023438 0.828125 19.03125 0.160156 14.15625 -1.171875 C 9.28125 -2.515625 5.390625 -4.207031 2.484375 -6.25 L 8.140625 -17.453125 C 10.972656 -15.566406 14.375 -14.050781 18.34375 -12.90625 C 22.3125 -11.769531 26.222656 -11.203125 30.078125 -11.203125 C 38.878906 -11.203125 43.28125 -13.523438 43.28125 -18.171875 C 43.28125 -20.367188 42.160156 -21.898438 39.921875 -22.765625 C 37.679688 -23.628906 34.085938 -24.453125 29.140625 -25.234375 C 23.941406 -26.023438 19.710938 -26.929688 16.453125 -27.953125 C 13.191406 -28.972656 10.359375 -30.757812 7.953125 -33.3125 C 5.554688 -35.875 4.359375 -39.4375 4.359375 -44 C 4.359375 -49.96875 6.851562 -54.738281 11.84375 -58.3125 C 16.84375 -61.894531 23.585938 -63.6875 32.078125 -63.6875 C 36.410156 -63.6875 40.738281 -63.195312 45.0625 -62.21875 C 49.382812 -61.238281 52.921875 -59.921875 55.671875 -58.265625 L 50.015625 -47.0625 C 44.660156 -50.207031 38.644531 -51.78125 31.96875 -51.78125 C 27.644531 -51.78125 24.359375 -51.128906 22.109375 -49.828125 C 19.867188 -48.535156 18.75 -46.828125 18.75 -44.703125 C 18.75 -42.347656 19.945312 -40.675781 22.34375 -39.6875 C 24.75 -38.707031 28.46875 -37.785156 33.5 -36.921875 C 38.53125 -36.128906 42.65625 -35.222656 45.875 -34.203125 C 49.101562 -33.179688 51.875 -31.453125 54.1875 -29.015625 C 56.507812 -26.578125 57.671875 -23.117188 57.671875 -18.640625 C 57.671875 -12.742188 55.113281 -8.023438 50 -4.484375 C 44.894531 -0.941406 37.941406 0.828125 29.140625 0.828125 Z M 29.140625 0.828125 "/></g></g></g></g></g></svg>